<?xml version="1.0" standalone="no"?>
 <!DOCTYPE svg PUBLIC "-//W3C//DTD SVG 1.1//EN" 
 "http://www.w3.org/Graphics/SVG/1.1/DTD/svg11.dtd"> 
<svg xmlns="http://www.w3.org/2000/svg" version="1.1" 
    width="29.7002cm" height="21.0007cm" viewBox="0 0 116930 82680 ">
<title>SVG Picture created as esp8266_dht22-F.Cu.svg date 2016/02/11 22:01:12 </title>
  <desc>Picture generated by PCBNEW </desc>
<g style="fill:#000000; fill-opacity:1;stroke:#000000; stroke-opacity:1;
stroke-linecap:round; stroke-linejoin:round; "
 transform="translate(0 0) scale(1 1)">
</g>
<g style="fill:#000000; fill-opacity:0.0; 
stroke:#000000; stroke-width:-0.000393701; stroke-opacity:1; 
stroke-linecap:round; stroke-linejoin:round;">
</g>
<g style="fill:#000000; fill-opacity:0.0; 
stroke:#000000; stroke-width:39.3701; stroke-opacity:1; 
stroke-linecap:round; stroke-linejoin:round;">
</g>
<g style="fill:#000000; fill-opacity:0.0; 
stroke:#000000; stroke-width:59.0551; stroke-opacity:1; 
stroke-linecap:round; stroke-linejoin:round;">
<rect x="69685.9" y="65357.2" width="42519.7" height="12598.4" rx="0" />
</g>
<g style="fill:#000000; fill-opacity:0.0; 
stroke:#000000; stroke-width:39.3701; stroke-opacity:1; 
stroke-linecap:round; stroke-linejoin:round;">
</g>
<g style="fill:#000000; fill-opacity:0.0; 
stroke:#000000; stroke-width:59.0551; stroke-opacity:1; 
stroke-linecap:round; stroke-linejoin:round;">
<rect x="3937.01" y="3937.01" width="109056" height="74806" rx="0" />
</g>
<g style="fill:#000000; fill-opacity:0.0; 
stroke:#000000; stroke-width:39.3701; stroke-opacity:1; 
stroke-linecap:round; stroke-linejoin:round;">
</g>
<g style="fill:#000000; fill-opacity:0.0; 
stroke:#000000; stroke-width:59.0551; stroke-opacity:1; 
stroke-linecap:round; stroke-linejoin:round;">
<rect x="4724.41" y="4724.41" width="107481" height="73231.2" rx="0" />
</g>
<g style="fill:#000000; fill-opacity:0.0; 
stroke:#000000; stroke-width:39.3701; stroke-opacity:1; 
stroke-linecap:round; stroke-linejoin:round;">
</g>
<g style="fill:#000000; fill-opacity:0.0; 
stroke:#000000; stroke-width:59.0551; stroke-opacity:1; 
stroke-linecap:round; stroke-linejoin:round;">
<path d="M23622 4724
L23622 3937
" />
</g>
<g style="fill:#000000; fill-opacity:0.0; 
stroke:#000000; stroke-width:39.3701; stroke-opacity:1; 
stroke-linecap:round; stroke-linejoin:round;">
</g>
<g style="fill:#000000; fill-opacity:0.0; 
stroke:#000000; stroke-width:59.0551; stroke-opacity:1; 
stroke-linecap:round; stroke-linejoin:round;">
<path d="M43307 4724
L43307 3937
" />
</g>
<g style="fill:#000000; fill-opacity:0.0; 
stroke:#000000; stroke-width:39.3701; stroke-opacity:1; 
stroke-linecap:round; stroke-linejoin:round;">
</g>
<g style="fill:#000000; fill-opacity:0.0; 
stroke:#000000; stroke-width:59.0551; stroke-opacity:1; 
stroke-linecap:round; stroke-linejoin:round;">
<path d="M62992 4724
L62992 3937
" />
</g>
<g style="fill:#000000; fill-opacity:0.0; 
stroke:#000000; stroke-width:39.3701; stroke-opacity:1; 
stroke-linecap:round; stroke-linejoin:round;">
</g>
<g style="fill:#000000; fill-opacity:0.0; 
stroke:#000000; stroke-width:59.0551; stroke-opacity:1; 
stroke-linecap:round; stroke-linejoin:round;">
<path d="M82677 4724
L82677 3937
" />
</g>
<g style="fill:#000000; fill-opacity:0.0; 
stroke:#000000; stroke-width:39.3701; stroke-opacity:1; 
stroke-linecap:round; stroke-linejoin:round;">
</g>
<g style="fill:#000000; fill-opacity:0.0; 
stroke:#000000; stroke-width:59.0551; stroke-opacity:1; 
stroke-linecap:round; stroke-linejoin:round;">
<path d="M102362 4724
L102362 3937
" />
</g>
<g style="fill:#000000; fill-opacity:0.0; 
stroke:#000000; stroke-width:39.3701; stroke-opacity:1; 
stroke-linecap:round; stroke-linejoin:round;">
</g>
<g style="fill:#000000; fill-opacity:0.0; 
stroke:#000000; stroke-width:59.0551; stroke-opacity:1; 
stroke-linecap:round; stroke-linejoin:round;">
<path d="M14169 4562
L13877 4562
" />
<path d="M14023 4562
L14023 4050
L13974 4123
L13925 4172
L13877 4196
" />
</g>
<g style="fill:#000000; fill-opacity:0.0; 
stroke:#000000; stroke-width:39.3701; stroke-opacity:1; 
stroke-linecap:round; stroke-linejoin:round;">
</g>
<g style="fill:#000000; fill-opacity:0.0; 
stroke:#000000; stroke-width:59.0551; stroke-opacity:1; 
stroke-linecap:round; stroke-linejoin:round;">
<path d="M33562 4099
L33586 4074
L33635 4050
L33757 4050
L33805 4074
L33830 4099
L33854 4147
L33854 4196
L33830 4269
L33537 4562
L33854 4562
" />
</g>
<g style="fill:#000000; fill-opacity:0.0; 
stroke:#000000; stroke-width:39.3701; stroke-opacity:1; 
stroke-linecap:round; stroke-linejoin:round;">
</g>
<g style="fill:#000000; fill-opacity:0.0; 
stroke:#000000; stroke-width:59.0551; stroke-opacity:1; 
stroke-linecap:round; stroke-linejoin:round;">
<path d="M53222 4050
L53539 4050
L53368 4245
L53442 4245
L53490 4269
L53515 4294
L53539 4342
L53539 4464
L53515 4513
L53490 4537
L53442 4562
L53295 4562
L53247 4537
L53222 4513
" />
</g>
<g style="fill:#000000; fill-opacity:0.0; 
stroke:#000000; stroke-width:39.3701; stroke-opacity:1; 
stroke-linecap:round; stroke-linejoin:round;">
</g>
<g style="fill:#000000; fill-opacity:0.0; 
stroke:#000000; stroke-width:59.0551; stroke-opacity:1; 
stroke-linecap:round; stroke-linejoin:round;">
<path d="M73175 4221
L73175 4562
" />
<path d="M73053 4026
L72932 4391
L73248 4391
" />
</g>
<g style="fill:#000000; fill-opacity:0.0; 
stroke:#000000; stroke-width:39.3701; stroke-opacity:1; 
stroke-linecap:round; stroke-linejoin:round;">
</g>
<g style="fill:#000000; fill-opacity:0.0; 
stroke:#000000; stroke-width:59.0551; stroke-opacity:1; 
stroke-linecap:round; stroke-linejoin:round;">
<path d="M92885 4050
L92641 4050
L92617 4294
L92641 4269
L92690 4245
L92812 4245
L92860 4269
L92885 4294
L92909 4342
L92909 4464
L92885 4513
L92860 4537
L92812 4562
L92690 4562
L92641 4537
L92617 4513
" />
</g>
<g style="fill:#000000; fill-opacity:0.0; 
stroke:#000000; stroke-width:39.3701; stroke-opacity:1; 
stroke-linecap:round; stroke-linejoin:round;">
</g>
<g style="fill:#000000; fill-opacity:0.0; 
stroke:#000000; stroke-width:59.0551; stroke-opacity:1; 
stroke-linecap:round; stroke-linejoin:round;">
<path d="M112545 4050
L112448 4050
L112399 4074
L112375 4099
L112326 4172
L112302 4269
L112302 4464
L112326 4513
L112350 4537
L112399 4562
L112497 4562
L112545 4537
L112570 4513
L112594 4464
L112594 4342
L112570 4294
L112545 4269
L112497 4245
L112399 4245
L112350 4269
L112326 4294
L112302 4342
" />
</g>
<g style="fill:#000000; fill-opacity:0.0; 
stroke:#000000; stroke-width:39.3701; stroke-opacity:1; 
stroke-linecap:round; stroke-linejoin:round;">
</g>
<g style="fill:#000000; fill-opacity:0.0; 
stroke:#000000; stroke-width:59.0551; stroke-opacity:1; 
stroke-linecap:round; stroke-linejoin:round;">
<path d="M23622 77955
L23622 78742
" />
</g>
<g style="fill:#000000; fill-opacity:0.0; 
stroke:#000000; stroke-width:39.3701; stroke-opacity:1; 
stroke-linecap:round; stroke-linejoin:round;">
</g>
<g style="fill:#000000; fill-opacity:0.0; 
stroke:#000000; stroke-width:59.0551; stroke-opacity:1; 
stroke-linecap:round; stroke-linejoin:round;">
<path d="M43307 77955
L43307 78742
" />
</g>
<g style="fill:#000000; fill-opacity:0.0; 
stroke:#000000; stroke-width:39.3701; stroke-opacity:1; 
stroke-linecap:round; stroke-linejoin:round;">
</g>
<g style="fill:#000000; fill-opacity:0.0; 
stroke:#000000; stroke-width:59.0551; stroke-opacity:1; 
stroke-linecap:round; stroke-linejoin:round;">
<path d="M62992 77955
L62992 78742
" />
</g>
<g style="fill:#000000; fill-opacity:0.0; 
stroke:#000000; stroke-width:39.3701; stroke-opacity:1; 
stroke-linecap:round; stroke-linejoin:round;">
</g>
<g style="fill:#000000; fill-opacity:0.0; 
stroke:#000000; stroke-width:59.0551; stroke-opacity:1; 
stroke-linecap:round; stroke-linejoin:round;">
<path d="M82677 77955
L82677 78742
" />
</g>
<g style="fill:#000000; fill-opacity:0.0; 
stroke:#000000; stroke-width:39.3701; stroke-opacity:1; 
stroke-linecap:round; stroke-linejoin:round;">
</g>
<g style="fill:#000000; fill-opacity:0.0; 
stroke:#000000; stroke-width:59.0551; stroke-opacity:1; 
stroke-linecap:round; stroke-linejoin:round;">
<path d="M102362 77955
L102362 78742
" />
</g>
<g style="fill:#000000; fill-opacity:0.0; 
stroke:#000000; stroke-width:39.3701; stroke-opacity:1; 
stroke-linecap:round; stroke-linejoin:round;">
</g>
<g style="fill:#000000; fill-opacity:0.0; 
stroke:#000000; stroke-width:59.0551; stroke-opacity:1; 
stroke-linecap:round; stroke-linejoin:round;">
<path d="M14169 78580
L13877 78580
" />
<path d="M14023 78580
L14023 78069
L13974 78142
L13925 78190
L13877 78215
" />
</g>
<g style="fill:#000000; fill-opacity:0.0; 
stroke:#000000; stroke-width:39.3701; stroke-opacity:1; 
stroke-linecap:round; stroke-linejoin:round;">
</g>
<g style="fill:#000000; fill-opacity:0.0; 
stroke:#000000; stroke-width:59.0551; stroke-opacity:1; 
stroke-linecap:round; stroke-linejoin:round;">
<path d="M33562 78117
L33586 78093
L33635 78069
L33757 78069
L33805 78093
L33830 78117
L33854 78166
L33854 78215
L33830 78288
L33537 78580
L33854 78580
" />
</g>
<g style="fill:#000000; fill-opacity:0.0; 
stroke:#000000; stroke-width:39.3701; stroke-opacity:1; 
stroke-linecap:round; stroke-linejoin:round;">
</g>
<g style="fill:#000000; fill-opacity:0.0; 
stroke:#000000; stroke-width:59.0551; stroke-opacity:1; 
stroke-linecap:round; stroke-linejoin:round;">
<path d="M53222 78069
L53539 78069
L53368 78263
L53442 78263
L53490 78288
L53515 78312
L53539 78361
L53539 78483
L53515 78532
L53490 78556
L53442 78580
L53295 78580
L53247 78556
L53222 78532
" />
</g>
<g style="fill:#000000; fill-opacity:0.0; 
stroke:#000000; stroke-width:39.3701; stroke-opacity:1; 
stroke-linecap:round; stroke-linejoin:round;">
</g>
<g style="fill:#000000; fill-opacity:0.0; 
stroke:#000000; stroke-width:59.0551; stroke-opacity:1; 
stroke-linecap:round; stroke-linejoin:round;">
<path d="M73175 78239
L73175 78580
" />
<path d="M73053 78044
L72932 78410
L73248 78410
" />
</g>
<g style="fill:#000000; fill-opacity:0.0; 
stroke:#000000; stroke-width:39.3701; stroke-opacity:1; 
stroke-linecap:round; stroke-linejoin:round;">
</g>
<g style="fill:#000000; fill-opacity:0.0; 
stroke:#000000; stroke-width:59.0551; stroke-opacity:1; 
stroke-linecap:round; stroke-linejoin:round;">
<path d="M92885 78069
L92641 78069
L92617 78312
L92641 78288
L92690 78263
L92812 78263
L92860 78288
L92885 78312
L92909 78361
L92909 78483
L92885 78532
L92860 78556
L92812 78580
L92690 78580
L92641 78556
L92617 78532
" />
</g>
<g style="fill:#000000; fill-opacity:0.0; 
stroke:#000000; stroke-width:39.3701; stroke-opacity:1; 
stroke-linecap:round; stroke-linejoin:round;">
</g>
<g style="fill:#000000; fill-opacity:0.0; 
stroke:#000000; stroke-width:59.0551; stroke-opacity:1; 
stroke-linecap:round; stroke-linejoin:round;">
<path d="M112545 78069
L112448 78069
L112399 78093
L112375 78117
L112326 78190
L112302 78288
L112302 78483
L112326 78532
L112350 78556
L112399 78580
L112497 78580
L112545 78556
L112570 78532
L112594 78483
L112594 78361
L112570 78312
L112545 78288
L112497 78263
L112399 78263
L112350 78288
L112326 78312
L112302 78361
" />
</g>
<g style="fill:#000000; fill-opacity:0.0; 
stroke:#000000; stroke-width:39.3701; stroke-opacity:1; 
stroke-linecap:round; stroke-linejoin:round;">
</g>
<g style="fill:#000000; fill-opacity:0.0; 
stroke:#000000; stroke-width:59.0551; stroke-opacity:1; 
stroke-linecap:round; stroke-linejoin:round;">
<path d="M3937 23622
L4724 23622
" />
</g>
<g style="fill:#000000; fill-opacity:0.0; 
stroke:#000000; stroke-width:39.3701; stroke-opacity:1; 
stroke-linecap:round; stroke-linejoin:round;">
</g>
<g style="fill:#000000; fill-opacity:0.0; 
stroke:#000000; stroke-width:59.0551; stroke-opacity:1; 
stroke-linecap:round; stroke-linejoin:round;">
<path d="M3937 43307
L4724 43307
" />
</g>
<g style="fill:#000000; fill-opacity:0.0; 
stroke:#000000; stroke-width:39.3701; stroke-opacity:1; 
stroke-linecap:round; stroke-linejoin:round;">
</g>
<g style="fill:#000000; fill-opacity:0.0; 
stroke:#000000; stroke-width:59.0551; stroke-opacity:1; 
stroke-linecap:round; stroke-linejoin:round;">
<path d="M3937 62992
L4724 62992
" />
</g>
<g style="fill:#000000; fill-opacity:0.0; 
stroke:#000000; stroke-width:39.3701; stroke-opacity:1; 
stroke-linecap:round; stroke-linejoin:round;">
</g>
<g style="fill:#000000; fill-opacity:0.0; 
stroke:#000000; stroke-width:59.0551; stroke-opacity:1; 
stroke-linecap:round; stroke-linejoin:round;">
<path d="M4208 13864
L4452 13864
" />
<path d="M4160 14011
L4330 13499
L4501 14011
" />
</g>
<g style="fill:#000000; fill-opacity:0.0; 
stroke:#000000; stroke-width:39.3701; stroke-opacity:1; 
stroke-linecap:round; stroke-linejoin:round;">
</g>
<g style="fill:#000000; fill-opacity:0.0; 
stroke:#000000; stroke-width:59.0551; stroke-opacity:1; 
stroke-linecap:round; stroke-linejoin:round;">
<path d="M4367 33428
L4440 33452
L4464 33476
L4489 33525
L4489 33598
L4464 33647
L4440 33671
L4391 33696
L4196 33696
L4196 33184
L4367 33184
L4416 33208
L4440 33233
L4464 33281
L4464 33330
L4440 33379
L4416 33403
L4367 33428
L4196 33428
" />
</g>
<g style="fill:#000000; fill-opacity:0.0; 
stroke:#000000; stroke-width:39.3701; stroke-opacity:1; 
stroke-linecap:round; stroke-linejoin:round;">
</g>
<g style="fill:#000000; fill-opacity:0.0; 
stroke:#000000; stroke-width:59.0551; stroke-opacity:1; 
stroke-linecap:round; stroke-linejoin:round;">
<path d="M4489 53332
L4464 53356
L4391 53381
L4342 53381
L4269 53356
L4221 53308
L4196 53259
L4172 53161
L4172 53088
L4196 52991
L4221 52942
L4269 52893
L4342 52869
L4391 52869
L4464 52893
L4489 52918
" />
</g>
<g style="fill:#000000; fill-opacity:0.0; 
stroke:#000000; stroke-width:39.3701; stroke-opacity:1; 
stroke-linecap:round; stroke-linejoin:round;">
</g>
<g style="fill:#000000; fill-opacity:0.0; 
stroke:#000000; stroke-width:59.0551; stroke-opacity:1; 
stroke-linecap:round; stroke-linejoin:round;">
<path d="M4196 73066
L4196 72554
L4318 72554
L4391 72578
L4440 72627
L4464 72676
L4489 72773
L4489 72846
L4464 72944
L4440 72993
L4391 73041
L4318 73066
L4196 73066
" />
</g>
<g style="fill:#000000; fill-opacity:0.0; 
stroke:#000000; stroke-width:39.3701; stroke-opacity:1; 
stroke-linecap:round; stroke-linejoin:round;">
</g>
<g style="fill:#000000; fill-opacity:0.0; 
stroke:#000000; stroke-width:59.0551; stroke-opacity:1; 
stroke-linecap:round; stroke-linejoin:round;">
<path d="M112992 23622
L112205 23622
" />
</g>
<g style="fill:#000000; fill-opacity:0.0; 
stroke:#000000; stroke-width:39.3701; stroke-opacity:1; 
stroke-linecap:round; stroke-linejoin:round;">
</g>
<g style="fill:#000000; fill-opacity:0.0; 
stroke:#000000; stroke-width:59.0551; stroke-opacity:1; 
stroke-linecap:round; stroke-linejoin:round;">
<path d="M112992 43307
L112205 43307
" />
</g>
<g style="fill:#000000; fill-opacity:0.0; 
stroke:#000000; stroke-width:39.3701; stroke-opacity:1; 
stroke-linecap:round; stroke-linejoin:round;">
</g>
<g style="fill:#000000; fill-opacity:0.0; 
stroke:#000000; stroke-width:59.0551; stroke-opacity:1; 
stroke-linecap:round; stroke-linejoin:round;">
<path d="M112992 62992
L112205 62992
" />
</g>
<g style="fill:#000000; fill-opacity:0.0; 
stroke:#000000; stroke-width:39.3701; stroke-opacity:1; 
stroke-linecap:round; stroke-linejoin:round;">
</g>
<g style="fill:#000000; fill-opacity:0.0; 
stroke:#000000; stroke-width:59.0551; stroke-opacity:1; 
stroke-linecap:round; stroke-linejoin:round;">
<path d="M112477 13864
L112721 13864
" />
<path d="M112428 14011
L112599 13499
L112769 14011
" />
</g>
<g style="fill:#000000; fill-opacity:0.0; 
stroke:#000000; stroke-width:39.3701; stroke-opacity:1; 
stroke-linecap:round; stroke-linejoin:round;">
</g>
<g style="fill:#000000; fill-opacity:0.0; 
stroke:#000000; stroke-width:59.0551; stroke-opacity:1; 
stroke-linecap:round; stroke-linejoin:round;">
<path d="M112635 33428
L112708 33452
L112733 33476
L112757 33525
L112757 33598
L112733 33647
L112708 33671
L112660 33696
L112465 33696
L112465 33184
L112635 33184
L112684 33208
L112708 33233
L112733 33281
L112733 33330
L112708 33379
L112684 33403
L112635 33428
L112465 33428
" />
</g>
<g style="fill:#000000; fill-opacity:0.0; 
stroke:#000000; stroke-width:39.3701; stroke-opacity:1; 
stroke-linecap:round; stroke-linejoin:round;">
</g>
<g style="fill:#000000; fill-opacity:0.0; 
stroke:#000000; stroke-width:59.0551; stroke-opacity:1; 
stroke-linecap:round; stroke-linejoin:round;">
<path d="M112757 53332
L112733 53356
L112660 53381
L112611 53381
L112538 53356
L112489 53308
L112465 53259
L112440 53161
L112440 53088
L112465 52991
L112489 52942
L112538 52893
L112611 52869
L112660 52869
L112733 52893
L112757 52918
" />
</g>
<g style="fill:#000000; fill-opacity:0.0; 
stroke:#000000; stroke-width:39.3701; stroke-opacity:1; 
stroke-linecap:round; stroke-linejoin:round;">
</g>
<g style="fill:#000000; fill-opacity:0.0; 
stroke:#000000; stroke-width:59.0551; stroke-opacity:1; 
stroke-linecap:round; stroke-linejoin:round;">
<path d="M112465 73066
L112465 72554
L112587 72554
L112660 72578
L112708 72627
L112733 72676
L112757 72773
L112757 72846
L112733 72944
L112708 72993
L112660 73041
L112587 73066
L112465 73066
" />
</g>
<g style="fill:#000000; fill-opacity:0.0; 
stroke:#000000; stroke-width:39.3701; stroke-opacity:1; 
stroke-linecap:round; stroke-linejoin:round;">
</g>
<g style="fill:#000000; fill-opacity:0.0; 
stroke:#000000; stroke-width:59.0551; stroke-opacity:1; 
stroke-linecap:round; stroke-linejoin:round;">
<path d="M78881 76293
L78881 75703
L79022 75703
L79106 75731
L79162 75787
L79190 75843
L79219 75956
L79219 76040
L79190 76153
L79162 76209
L79106 76265
L79022 76293
L78881 76293
" />
<path d="M79725 76293
L79725 75984
L79697 75928
L79640 75899
L79528 75899
L79472 75928
" />
<path d="M79725 76265
L79669 76293
L79528 76293
L79472 76265
L79444 76209
L79444 76153
L79472 76096
L79528 76068
L79669 76068
L79725 76040
" />
<path d="M79922 75899
L80147 75899
" />
<path d="M80006 75703
L80006 76209
L80034 76265
L80090 76293
L80147 76293
" />
<path d="M80568 76265
L80512 76293
L80400 76293
L80343 76265
L80315 76209
L80315 75984
L80343 75928
L80400 75899
L80512 75899
L80568 75928
L80597 75984
L80597 76040
L80315 76096
" />
<path d="M80850 76237
L80878 76265
L80850 76293
L80822 76265
L80850 76237
L80850 76293
" />
<path d="M80850 75928
L80878 75956
L80850 75984
L80822 75956
L80850 75928
L80850 75984
" />
</g>
<g style="fill:#000000; fill-opacity:0.0; 
stroke:#000000; stroke-width:39.3701; stroke-opacity:1; 
stroke-linecap:round; stroke-linejoin:round;">
</g>
<g style="fill:#000000; fill-opacity:0.0; 
stroke:#000000; stroke-width:59.0551; stroke-opacity:1; 
stroke-linecap:round; stroke-linejoin:round;">
<path d="M69685 76577
L112205 76577
" />
</g>
<g style="fill:#000000; fill-opacity:0.0; 
stroke:#000000; stroke-width:39.3701; stroke-opacity:1; 
stroke-linecap:round; stroke-linejoin:round;">
</g>
<g style="fill:#000000; fill-opacity:0.0; 
stroke:#000000; stroke-width:59.0551; stroke-opacity:1; 
stroke-linecap:round; stroke-linejoin:round;">
<path d="M70220 77395
L70220 76805
" />
<path d="M70557 77395
L70304 77058
" />
<path d="M70557 76805
L70220 77142
" />
<path d="M70810 77395
L70810 77002
" />
<path d="M70810 76805
L70782 76833
L70810 76861
L70838 76833
L70810 76805
L70810 76861
" />
<path d="M71429 77339
L71401 77367
L71316 77395
L71260 77395
L71176 77367
L71120 77311
L71091 77255
L71063 77142
L71063 77058
L71091 76946
L71120 76889
L71176 76833
L71260 76805
L71316 76805
L71401 76833
L71429 76861
" />
<path d="M71935 77395
L71935 77086
L71907 77030
L71851 77002
L71738 77002
L71682 77030
" />
<path d="M71935 77367
L71879 77395
L71738 77395
L71682 77367
L71654 77311
L71654 77255
L71682 77199
L71738 77171
L71879 77171
L71935 77142
" />
<path d="M72469 77395
L72469 76805
" />
<path d="M72469 77367
L72413 77395
L72301 77395
L72244 77367
L72216 77339
L72188 77283
L72188 77114
L72216 77058
L72244 77030
L72301 77002
L72413 77002
L72469 77030
" />
<path d="M73201 77086
L73397 77086
" />
<path d="M73482 77395
L73201 77395
L73201 76805
L73482 76805
" />
<path d="M73735 77339
L73763 77367
L73735 77395
L73707 77367
L73735 77339
L73735 77395
" />
<path d="M74016 77395
L74016 76805
L74157 76805
L74241 76833
L74297 76889
L74325 76946
L74354 77058
L74354 77142
L74325 77255
L74297 77311
L74241 77367
L74157 77395
L74016 77395
" />
<path d="M74607 77339
L74635 77367
L74607 77395
L74579 77367
L74607 77339
L74607 77395
" />
<path d="M74860 77227
L75141 77227
" />
<path d="M74804 77395
L75000 76805
L75197 77395
" />
<path d="M75394 77339
L75422 77367
L75394 77395
L75366 77367
L75394 77339
L75394 77395
" />
<path d="M76575 77395
L76575 76805
" />
<path d="M76631 77171
L76800 77395
" />
<path d="M76800 77002
L76575 77227
" />
<path d="M77053 77395
L77053 77002
" />
<path d="M77053 76805
L77025 76833
L77053 76861
L77081 76833
L77053 76805
L77053 76861
" />
<path d="M77588 77367
L77531 77395
L77419 77395
L77363 77367
L77334 77339
L77306 77283
L77306 77114
L77334 77058
L77363 77030
L77419 77002
L77531 77002
L77588 77030
" />
<path d="M78094 77395
L78094 77086
L78066 77030
L78009 77002
L77897 77002
L77841 77030
" />
<path d="M78094 77367
L78037 77395
L77897 77395
L77841 77367
L77813 77311
L77813 77255
L77841 77199
L77897 77171
L78037 77171
L78094 77142
" />
<path d="M78628 77395
L78628 76805
" />
<path d="M78628 77367
L78572 77395
L78459 77395
L78403 77367
L78375 77339
L78347 77283
L78347 77114
L78375 77058
L78403 77030
L78459 77002
L78572 77002
L78628 77030
" />
<path d="M79612 77002
L79612 77395
" />
<path d="M79472 76777
L79331 77199
L79697 77199
" />
<path d="M79922 77339
L79950 77367
L79922 77395
L79894 77367
L79922 77339
L79922 77395
" />
<path d="M80315 76805
L80372 76805
L80428 76833
L80456 76861
L80484 76917
L80512 77030
L80512 77171
L80484 77283
L80456 77339
L80428 77367
L80372 77395
L80315 77395
L80259 77367
L80231 77339
L80203 77283
L80175 77171
L80175 77030
L80203 76917
L80231 76861
L80259 76833
L80315 76805
" />
<path d="M80765 77339
L80793 77367
L80765 77395
L80737 77367
L80765 77339
L80765 77395
" />
<path d="M81356 77395
L81018 77395
" />
<path d="M81187 77395
L81187 76805
L81131 76889
L81075 76946
L81018 76974
" />
<path d="M81609 77171
L82059 77171
" />
<path d="M82593 77002
L82593 77395
" />
<path d="M82453 76777
L82312 77199
L82678 77199
" />
<path d="M82903 77339
L82931 77367
L82903 77395
L82874 77367
L82903 77339
L82903 77395
" />
<path d="M83156 76861
L83184 76833
L83240 76805
L83381 76805
L83437 76833
L83465 76861
L83493 76917
L83493 76974
L83465 77058
L83127 77395
L83493 77395
" />
<path d="M83859 76805
L83915 76805
L83971 76833
L83999 76861
L84027 76917
L84055 77030
L84055 77171
L84027 77283
L83999 77339
L83971 77367
L83915 77395
L83859 77395
L83802 77367
L83774 77339
L83746 77283
L83718 77171
L83718 77030
L83746 76917
L83774 76861
L83802 76833
L83859 76805
" />
<path d="M84618 77395
L84280 77395
" />
<path d="M84449 77395
L84449 76805
L84393 76889
L84337 76946
L84280 76974
" />
<path d="M85124 76805
L85012 76805
L84955 76833
L84927 76861
L84871 76946
L84843 77058
L84843 77283
L84871 77339
L84899 77367
L84955 77395
L85068 77395
L85124 77367
L85152 77339
L85180 77283
L85180 77142
L85152 77086
L85124 77058
L85068 77030
L84955 77030
L84899 77058
L84871 77086
L84843 77142
" />
<path d="M85546 76805
L85602 76805
L85658 76833
L85687 76861
L85715 76917
L85743 77030
L85743 77171
L85715 77283
L85687 77339
L85658 77367
L85602 77395
L85546 77395
L85490 77367
L85462 77339
L85433 77283
L85405 77171
L85405 77030
L85433 76917
L85462 76861
L85490 76833
L85546 76805
" />
<path d="M85968 76861
L85996 76833
L86052 76805
L86193 76805
L86249 76833
L86277 76861
L86305 76917
L86305 76974
L86277 77058
L85940 77395
L86305 77395
" />
<path d="M86868 77395
L86530 77395
" />
<path d="M86699 77395
L86699 76805
L86643 76889
L86586 76946
L86530 76974
" />
<path d="M87430 77395
L87093 77395
" />
<path d="M87261 77395
L87261 76805
L87205 76889
L87149 76946
L87093 76974
" />
<path d="M87796 76805
L87852 76805
L87908 76833
L87936 76861
L87964 76917
L87992 77030
L87992 77171
L87964 77283
L87936 77339
L87908 77367
L87852 77395
L87796 77395
L87739 77367
L87711 77339
L87683 77283
L87655 77171
L87655 77030
L87683 76917
L87711 76861
L87739 76833
L87796 76805
" />
<path d="M88330 77058
L88274 77030
L88246 77002
L88217 76946
L88217 76917
L88246 76861
L88274 76833
L88330 76805
L88442 76805
L88499 76833
L88527 76861
L88555 76917
L88555 76946
L88527 77002
L88499 77030
L88442 77058
L88330 77058
L88274 77086
L88246 77114
L88217 77171
L88217 77283
L88246 77339
L88274 77367
L88330 77395
L88442 77395
L88499 77367
L88527 77339
L88555 77283
L88555 77171
L88527 77114
L88499 77086
L88442 77058
" />
<path d="M89061 77002
L89061 77395
" />
<path d="M88920 76777
L88780 77199
L89145 77199
" />
<path d="M89624 76805
L89511 76805
L89455 76833
L89427 76861
L89370 76946
L89342 77058
L89342 77283
L89370 77339
L89399 77367
L89455 77395
L89567 77395
L89624 77367
L89652 77339
L89680 77283
L89680 77142
L89652 77086
L89624 77058
L89567 77030
L89455 77030
L89399 77058
L89370 77086
L89342 77142
" />
<path d="M89933 77171
L90383 77171
" />
<path d="M90158 77395
L90158 76946
" />
<path d="M90917 76805
L90805 76805
L90748 76833
L90720 76861
L90664 76946
L90636 77058
L90636 77283
L90664 77339
L90692 77367
L90748 77395
L90861 77395
L90917 77367
L90945 77339
L90973 77283
L90973 77142
L90945 77086
L90917 77058
L90861 77030
L90748 77030
L90692 77058
L90664 77086
L90636 77142
" />
<path d="M91536 77395
L91198 77395
" />
<path d="M91367 77395
L91367 76805
L91311 76889
L91255 76946
L91198 76974
" />
<path d="M91817 77395
L91929 77395
L91986 77367
L92014 77339
L92070 77255
L92098 77142
L92098 76917
L92070 76861
L92042 76833
L91986 76805
L91873 76805
L91817 76833
L91789 76861
L91761 76917
L91761 77058
L91789 77114
L91817 77142
L91873 77171
L91986 77171
L92042 77142
L92070 77114
L92098 77058
" />
<path d="M92633 76805
L92351 76805
L92323 77086
L92351 77058
L92408 77030
L92548 77030
L92604 77058
L92633 77086
L92661 77142
L92661 77283
L92633 77339
L92604 77367
L92548 77395
L92408 77395
L92351 77367
L92323 77339
" />
<path d="M92858 76805
L93223 76805
L93026 77030
L93111 77030
L93167 77058
L93195 77086
L93223 77142
L93223 77283
L93195 77339
L93167 77367
L93111 77395
L92942 77395
L92886 77367
L92858 77339
" />
<path d="M93561 77058
L93504 77030
L93476 77002
L93448 76946
L93448 76917
L93476 76861
L93504 76833
L93561 76805
L93673 76805
L93729 76833
L93757 76861
L93786 76917
L93786 76946
L93757 77002
L93729 77030
L93673 77058
L93561 77058
L93504 77086
L93476 77114
L93448 77171
L93448 77283
L93476 77339
L93504 77367
L93561 77395
L93673 77395
L93729 77367
L93757 77339
L93786 77283
L93786 77171
L93757 77114
L93729 77086
L93673 77058
" />
<path d="M92773 76703
L93898 76703
" />
<path d="M94292 77002
L94292 77395
" />
<path d="M94039 77002
L94039 77311
L94067 77367
L94123 77395
L94207 77395
L94264 77367
L94292 77339
" />
<path d="M94573 77395
L94573 76805
" />
<path d="M94573 77030
L94629 77002
L94742 77002
L94798 77030
L94826 77058
L94854 77114
L94854 77283
L94826 77339
L94798 77367
L94742 77395
L94629 77395
L94573 77367
" />
<path d="M95360 77002
L95360 77395
" />
<path d="M95107 77002
L95107 77311
L95135 77367
L95192 77395
L95276 77395
L95332 77367
L95360 77339
" />
<path d="M95642 77002
L95642 77395
" />
<path d="M95642 77058
L95670 77030
L95726 77002
L95810 77002
L95867 77030
L95895 77086
L95895 77395
" />
<path d="M96091 77002
L96316 77002
" />
<path d="M96176 76805
L96176 77311
L96204 77367
L96260 77395
L96316 77395
" />
<path d="M96766 77002
L96766 77395
" />
<path d="M96513 77002
L96513 77311
L96541 77367
L96598 77395
L96682 77395
L96738 77367
L96766 77339
" />
<path d="M97357 77395
L97019 77395
" />
<path d="M97188 77395
L97188 76805
L97132 76889
L97076 76946
L97019 76974
" />
<path d="M97891 76805
L97610 76805
L97582 77086
L97610 77058
L97666 77030
L97807 77030
L97863 77058
L97891 77086
L97919 77142
L97919 77283
L97891 77339
L97863 77367
L97807 77395
L97666 77395
L97610 77367
L97582 77339
" />
<path d="M98172 77339
L98201 77367
L98172 77395
L98144 77367
L98172 77339
L98172 77395
" />
<path d="M98763 77395
L98426 77395
" />
<path d="M98594 77395
L98594 76805
L98538 76889
L98482 76946
L98426 76974
" />
<path d="M99129 76805
L99185 76805
L99241 76833
L99269 76861
L99297 76917
L99325 77030
L99325 77171
L99297 77283
L99269 77339
L99241 77367
L99185 77395
L99129 77395
L99072 77367
L99044 77339
L99016 77283
L98988 77171
L98988 77030
L99016 76917
L99044 76861
L99072 76833
L99129 76805
" />
<path d="M99579 77339
L99607 77367
L99579 77395
L99550 77367
L99579 77339
L99579 77395
" />
<path d="M100169 77395
L99832 77395
" />
<path d="M100000 77395
L100000 76805
L99944 76889
L99888 76946
L99832 76974
" />
<path d="M100422 77171
L100872 77171
" />
<path d="M101125 77367
L101181 77395
L101294 77395
L101350 77367
L101378 77311
L101378 77283
L101350 77227
L101294 77199
L101210 77199
L101153 77171
L101125 77114
L101125 77086
L101153 77030
L101210 77002
L101294 77002
L101350 77030
" />
<path d="M101547 77002
L101772 77002
" />
<path d="M101631 76805
L101631 77311
L101660 77367
L101716 77395
L101772 77395
" />
<path d="M102222 77395
L102222 77086
L102194 77030
L102138 77002
L102025 77002
L101969 77030
" />
<path d="M102222 77367
L102166 77395
L102025 77395
L101969 77367
L101941 77311
L101941 77255
L101969 77199
L102025 77171
L102166 77171
L102222 77142
" />
<path d="M102503 77395
L102503 76805
" />
<path d="M102503 77030
L102559 77002
L102672 77002
L102728 77030
L102756 77058
L102784 77114
L102784 77283
L102756 77339
L102728 77367
L102672 77395
L102559 77395
L102503 77367
" />
<path d="M103122 77395
L103066 77367
L103037 77311
L103037 76805
" />
<path d="M103572 77367
L103516 77395
L103403 77395
L103347 77367
L103319 77311
L103319 77086
L103347 77030
L103403 77002
L103516 77002
L103572 77030
L103600 77086
L103600 77142
L103319 77199
" />
</g>
<g style="fill:#000000; fill-opacity:0.0; 
stroke:#000000; stroke-width:39.3701; stroke-opacity:1; 
stroke-linecap:round; stroke-linejoin:round;">
</g>
<g style="fill:#000000; fill-opacity:0.0; 
stroke:#000000; stroke-width:59.0551; stroke-opacity:1; 
stroke-linecap:round; stroke-linejoin:round;">
<path d="M69685 75396
L112205 75396
" />
</g>
<g style="fill:#000000; fill-opacity:0.0; 
stroke:#000000; stroke-width:39.3701; stroke-opacity:1; 
stroke-linecap:round; stroke-linejoin:round;">
</g>
<g style="fill:#000000; fill-opacity:0.0; 
stroke:#000000; stroke-width:118.11; stroke-opacity:1; 
stroke-linecap:round; stroke-linejoin:round;">
<path d="M104022 76293
L103825 76012
" />
<path d="M103684 76293
L103684 75703
L103909 75703
L103965 75731
L103994 75759
L104022 75815
L104022 75899
L103994 75956
L103965 75984
L103909 76012
L103684 76012
" />
<path d="M104500 76265
L104444 76293
L104331 76293
L104275 76265
L104247 76209
L104247 75984
L104275 75928
L104331 75899
L104444 75899
L104500 75928
L104528 75984
L104528 76040
L104247 76096
" />
<path d="M104725 75899
L104865 76293
L105006 75899
" />
<path d="M105231 76237
L105259 76265
L105231 76293
L105203 76265
L105231 76237
L105231 76293
" />
<path d="M105231 75928
L105259 75956
L105231 75984
L105203 75956
L105231 75928
L105231 75984
" />
</g>
<g style="fill:#000000; fill-opacity:0.0; 
stroke:#000000; stroke-width:39.3701; stroke-opacity:1; 
stroke-linecap:round; stroke-linejoin:round;">
</g>
<g style="fill:#000000; fill-opacity:0.0; 
stroke:#000000; stroke-width:59.0551; stroke-opacity:1; 
stroke-linecap:round; stroke-linejoin:round;">
<path d="M70192 76265
L70276 76293
L70417 76293
L70473 76265
L70501 76237
L70529 76181
L70529 76124
L70501 76068
L70473 76040
L70417 76012
L70304 75984
L70248 75956
L70220 75928
L70192 75871
L70192 75815
L70220 75759
L70248 75731
L70304 75703
L70445 75703
L70529 75731
" />
<path d="M70782 76293
L70782 75899
" />
<path d="M70782 75703
L70754 75731
L70782 75759
L70810 75731
L70782 75703
L70782 75759
" />
<path d="M71007 75899
L71316 75899
L71007 76293
L71316 76293
" />
<path d="M71766 76265
L71710 76293
L71598 76293
L71541 76265
L71513 76209
L71513 75984
L71541 75928
L71598 75899
L71710 75899
L71766 75928
L71795 75984
L71795 76040
L71513 76096
" />
<path d="M72048 76237
L72076 76265
L72048 76293
L72019 76265
L72048 76237
L72048 76293
" />
<path d="M72048 75928
L72076 75956
L72048 75984
L72019 75956
L72048 75928
L72048 75984
" />
<path d="M72751 76124
L73032 76124
" />
<path d="M72694 76293
L72891 75703
L73088 76293
" />
<path d="M73538 75899
L73538 76293
" />
<path d="M73397 75674
L73257 76096
L73622 76096
" />
</g>
<g style="fill:#000000; fill-opacity:0.0; 
stroke:#000000; stroke-width:39.3701; stroke-opacity:1; 
stroke-linecap:round; stroke-linejoin:round;">
</g>
<g style="fill:#000000; fill-opacity:0.0; 
stroke:#000000; stroke-width:59.0551; stroke-opacity:1; 
stroke-linecap:round; stroke-linejoin:round;">
<path d="M103684 77395
L103684 76805
" />
<path d="M104219 77395
L104219 76805
" />
<path d="M104219 77367
L104162 77395
L104050 77395
L103994 77367
L103965 77339
L103937 77283
L103937 77114
L103965 77058
L103994 77030
L104050 77002
L104162 77002
L104219 77030
" />
<path d="M104500 77339
L104528 77367
L104500 77395
L104472 77367
L104500 77339
L104500 77395
" />
<path d="M104500 77030
L104528 77058
L104500 77086
L104472 77058
L104500 77030
L104500 77086
" />
<path d="M105540 77395
L105203 77395
" />
<path d="M105372 77395
L105372 76805
L105315 76889
L105259 76946
L105203 76974
" />
<path d="M106215 76777
L105709 77536
" />
<path d="M106721 77395
L106384 77395
" />
<path d="M106553 77395
L106553 76805
L106496 76889
L106440 76946
L106384 76974
" />
</g>
<g style="fill:#000000; fill-opacity:0.0; 
stroke:#000000; stroke-width:39.3701; stroke-opacity:1; 
stroke-linecap:round; stroke-linejoin:round;">
</g>
<g style="fill:#000000; fill-opacity:0.0; 
stroke:#000000; stroke-width:59.0551; stroke-opacity:1; 
stroke-linecap:round; stroke-linejoin:round;">
<path d="M69685 73821
L112205 73821
" />
</g>
<g style="fill:#000000; fill-opacity:0.0; 
stroke:#000000; stroke-width:39.3701; stroke-opacity:1; 
stroke-linecap:round; stroke-linejoin:round;">
</g>
<g style="fill:#000000; fill-opacity:0.0; 
stroke:#000000; stroke-width:157.48; stroke-opacity:1; 
stroke-linecap:round; stroke-linejoin:round;">
<path d="M70257 74099
L70707 74099
" />
<path d="M70384 74886
L70482 74099
" />
<path d="M70871 74886
L70937 74361
" />
<path d="M70970 74099
L70927 74136
L70960 74174
L71002 74136
L70970 74099
L70960 74174
" />
<path d="M71199 74361
L71499 74361
" />
<path d="M71345 74099
L71260 74774
L71288 74849
L71359 74886
L71434 74886
" />
<path d="M71809 74886
L71738 74849
L71710 74774
L71795 74099
" />
<path d="M72413 74849
L72334 74886
L72184 74886
L72113 74849
L72085 74774
L72123 74474
L72169 74399
L72249 74361
L72399 74361
L72469 74399
L72498 74474
L72488 74549
L72104 74624
" />
<path d="M72793 74811
L72826 74849
L72783 74886
L72751 74849
L72793 74811
L72783 74886
" />
<path d="M72844 74399
L72877 74436
L72835 74474
L72802 74436
L72844 74399
L72835 74474
" />
</g>
<g style="fill:#000000; fill-opacity:0.0; 
stroke:#000000; stroke-width:39.3701; stroke-opacity:1; 
stroke-linecap:round; stroke-linejoin:round;">
</g>
<g style="fill:#000000; fill-opacity:0.0; 
stroke:#000000; stroke-width:59.0551; stroke-opacity:1; 
stroke-linecap:round; stroke-linejoin:round;">
<path d="M70417 73070
L70220 73070
" />
<path d="M70220 73380
L70220 72789
L70501 72789
" />
<path d="M70726 73380
L70726 72986
" />
<path d="M70726 72789
L70698 72817
L70726 72845
L70754 72817
L70726 72789
L70726 72845
" />
<path d="M71091 73380
L71035 73352
L71007 73295
L71007 72789
" />
<path d="M71541 73352
L71485 73380
L71373 73380
L71316 73352
L71288 73295
L71288 73070
L71316 73014
L71373 72986
L71485 72986
L71541 73014
L71570 73070
L71570 73127
L71288 73183
" />
<path d="M71823 73323
L71851 73352
L71823 73380
L71795 73352
L71823 73323
L71823 73380
" />
<path d="M71823 73014
L71851 73042
L71823 73070
L71795 73042
L71823 73014
L71823 73070
" />
<path d="M72779 73352
L72723 73380
L72610 73380
L72554 73352
L72526 73295
L72526 73070
L72554 73014
L72610 72986
L72723 72986
L72779 73014
L72807 73070
L72807 73127
L72526 73183
" />
<path d="M73032 73352
L73088 73380
L73201 73380
L73257 73352
L73285 73295
L73285 73267
L73257 73211
L73201 73183
L73116 73183
L73060 73155
L73032 73099
L73032 73070
L73060 73014
L73116 72986
L73201 72986
L73257 73014
" />
<path d="M73538 72986
L73538 73577
" />
<path d="M73538 73014
L73594 72986
L73707 72986
L73763 73014
L73791 73042
L73819 73099
L73819 73267
L73791 73323
L73763 73352
L73707 73380
L73594 73380
L73538 73352
" />
<path d="M74157 73042
L74100 73014
L74072 72986
L74044 72930
L74044 72902
L74072 72845
L74100 72817
L74157 72789
L74269 72789
L74325 72817
L74354 72845
L74382 72902
L74382 72930
L74354 72986
L74325 73014
L74269 73042
L74157 73042
L74100 73070
L74072 73099
L74044 73155
L74044 73267
L74072 73323
L74100 73352
L74157 73380
L74269 73380
L74325 73352
L74354 73323
L74382 73267
L74382 73155
L74354 73099
L74325 73070
L74269 73042
" />
<path d="M74607 72845
L74635 72817
L74691 72789
L74832 72789
L74888 72817
L74916 72845
L74944 72902
L74944 72958
L74916 73042
L74579 73380
L74944 73380
" />
<path d="M75450 72789
L75338 72789
L75282 72817
L75253 72845
L75197 72930
L75169 73042
L75169 73267
L75197 73323
L75225 73352
L75282 73380
L75394 73380
L75450 73352
L75478 73323
L75507 73267
L75507 73127
L75478 73070
L75450 73042
L75394 73014
L75282 73014
L75225 73042
L75197 73070
L75169 73127
" />
<path d="M76013 72789
L75900 72789
L75844 72817
L75816 72845
L75760 72930
L75732 73042
L75732 73267
L75760 73323
L75788 73352
L75844 73380
L75956 73380
L76013 73352
L76041 73323
L76069 73267
L76069 73127
L76041 73070
L76013 73042
L75956 73014
L75844 73014
L75788 73042
L75760 73070
L75732 73127
" />
<path d="M76181 73436
L76631 73436
" />
<path d="M77025 73380
L77025 72789
" />
<path d="M77025 73352
L76969 73380
L76856 73380
L76800 73352
L76772 73323
L76744 73267
L76744 73099
L76772 73042
L76800 73014
L76856 72986
L76969 72986
L77025 73014
" />
<path d="M77306 73380
L77306 72789
" />
<path d="M77559 73380
L77559 73070
L77531 73014
L77475 72986
L77391 72986
L77334 73014
L77306 73042
" />
<path d="M77756 72986
L77981 72986
" />
<path d="M77841 72789
L77841 73295
L77869 73352
L77925 73380
L77981 73380
" />
<path d="M78150 72845
L78178 72817
L78234 72789
L78375 72789
L78431 72817
L78459 72845
L78487 72902
L78487 72958
L78459 73042
L78122 73380
L78487 73380
" />
<path d="M78712 72845
L78741 72817
L78797 72789
L78937 72789
L78994 72817
L79022 72845
L79050 72902
L79050 72958
L79022 73042
L78684 73380
L79050 73380
" />
<path d="M79303 73323
L79331 73352
L79303 73380
L79275 73352
L79303 73323
L79303 73380
" />
<path d="M79584 73380
L79584 72789
" />
<path d="M79640 73155
L79809 73380
" />
<path d="M79809 72986
L79584 73211
" />
<path d="M80062 73380
L80062 72986
" />
<path d="M80062 72789
L80034 72817
L80062 72845
L80090 72817
L80062 72789
L80062 72845
" />
<path d="M80597 73352
L80540 73380
L80428 73380
L80372 73352
L80343 73323
L80315 73267
L80315 73099
L80343 73042
L80372 73014
L80428 72986
L80540 72986
L80597 73014
" />
<path d="M81103 73380
L81103 73070
L81075 73014
L81018 72986
L80906 72986
L80850 73014
" />
<path d="M81103 73352
L81046 73380
L80906 73380
L80850 73352
L80822 73295
L80822 73239
L80850 73183
L80906 73155
L81046 73155
L81103 73127
" />
<path d="M81637 73380
L81637 72789
" />
<path d="M81637 73352
L81581 73380
L81468 73380
L81412 73352
L81384 73323
L81356 73267
L81356 73099
L81384 73042
L81412 73014
L81468 72986
L81581 72986
L81637 73014
" />
<path d="M81778 73436
L82228 73436
" />
<path d="M82368 72986
L82368 73577
" />
<path d="M82368 73014
L82424 72986
L82537 72986
L82593 73014
L82621 73042
L82649 73099
L82649 73267
L82621 73323
L82593 73352
L82537 73380
L82424 73380
L82368 73352
" />
<path d="M83156 73352
L83099 73380
L82987 73380
L82931 73352
L82903 73323
L82874 73267
L82874 73099
L82903 73042
L82931 73014
L82987 72986
L83099 72986
L83156 73014
" />
<path d="M83409 73380
L83409 72789
" />
<path d="M83409 73014
L83465 72986
L83577 72986
L83634 73014
L83662 73042
L83690 73099
L83690 73267
L83662 73323
L83634 73352
L83577 73380
L83465 73380
L83409 73352
" />
</g>
<g style="fill:#000000; fill-opacity:0.0; 
stroke:#000000; stroke-width:39.3701; stroke-opacity:1; 
stroke-linecap:round; stroke-linejoin:round;">
</g>
<g style="fill:#000000; fill-opacity:0.0; 
stroke:#000000; stroke-width:59.0551; stroke-opacity:1; 
stroke-linecap:round; stroke-linejoin:round;">
<path d="M69685 71459
L112205 71459
" />
</g>
<g style="fill:#000000; fill-opacity:0.0; 
stroke:#000000; stroke-width:39.3701; stroke-opacity:1; 
stroke-linecap:round; stroke-linejoin:round;">
</g>
<g style="fill:#000000; fill-opacity:0.0; 
stroke:#000000; stroke-width:59.0551; stroke-opacity:1; 
stroke-linecap:round; stroke-linejoin:round;">
<path d="M70192 72289
L70276 72317
L70417 72317
L70473 72289
L70501 72260
L70529 72204
L70529 72148
L70501 72092
L70473 72064
L70417 72036
L70304 72007
L70248 71979
L70220 71951
L70192 71895
L70192 71839
L70220 71782
L70248 71754
L70304 71726
L70445 71726
L70529 71754
" />
<path d="M70782 72317
L70782 71726
" />
<path d="M71035 72317
L71035 72007
L71007 71951
L70951 71923
L70867 71923
L70810 71951
L70782 71979
" />
<path d="M71541 72289
L71485 72317
L71373 72317
L71316 72289
L71288 72232
L71288 72007
L71316 71951
L71373 71923
L71485 71923
L71541 71951
L71570 72007
L71570 72064
L71288 72120
" />
<path d="M72048 72289
L71991 72317
L71879 72317
L71823 72289
L71795 72232
L71795 72007
L71823 71951
L71879 71923
L71991 71923
L72048 71951
L72076 72007
L72076 72064
L71795 72120
" />
<path d="M72244 71923
L72469 71923
" />
<path d="M72329 71726
L72329 72232
L72357 72289
L72413 72317
L72469 72317
" />
<path d="M72666 72260
L72694 72289
L72666 72317
L72638 72289
L72666 72260
L72666 72317
" />
<path d="M72666 71951
L72694 71979
L72666 72007
L72638 71979
L72666 71951
L72666 72007
" />
</g>
<g style="fill:#000000; fill-opacity:0.0; 
stroke:#000000; stroke-width:39.3701; stroke-opacity:1; 
stroke-linecap:round; stroke-linejoin:round;">
</g>
<g style="fill:#000000; fill-opacity:0.0; 
stroke:#000000; stroke-width:59.0551; stroke-opacity:1; 
stroke-linecap:round; stroke-linejoin:round;">
<path d="M77559 75396
L77559 76577
" />
</g>
<g style="fill:#000000; fill-opacity:0.0; 
stroke:#000000; stroke-width:39.3701; stroke-opacity:1; 
stroke-linecap:round; stroke-linejoin:round;">
</g>
<g style="fill:#000000; fill-opacity:0.0; 
stroke:#000000; stroke-width:59.0551; stroke-opacity:1; 
stroke-linecap:round; stroke-linejoin:round;">
<path d="M102756 75396
L102756 77955
" />
</g>
<g style="fill:#000000; fill-opacity:0.0; 
stroke:#000000; stroke-width:59.0551; stroke-opacity:1; 
stroke-linecap:round; stroke-linejoin:round;">
<path d="M74410 40551
L74410 22440
" />
<path d="M62599 40551
L74410 40551
" />
<path d="M62599 22440
L62599 40551
" />
<path d="M74410 22440
L62599 22440
" />
</g>
<g style="fill:#000000; fill-opacity:0.0; 
stroke:#000000; stroke-width:0; stroke-opacity:1; 
stroke-linecap:round; stroke-linejoin:round;">
</g>
<g style="fill:#000000; fill-opacity:1.0; 
stroke:#000000; stroke-width:0; stroke-opacity:1; 
stroke-linecap:round; stroke-linejoin:round;">
<polyline style="fill-rule:evenodd;"
points="69445,37197
68815,37197
68815,38221
69445,38221
69445,37197
" /> 
<polyline style="fill-rule:evenodd;"
points="69445,35779
68815,35779
68815,36803
69445,36803
69445,35779
" /> 
<polyline style="fill-rule:evenodd;"
points="66339,36953
66339,37446
66733,37446
66733,36953
66339,36953
" /> 
<polyline style="fill-rule:evenodd;"
points="67126,36953
67126,37446
67520,37446
67520,36953
67126,36953
" /> 
<polyline style="fill-rule:evenodd;"
points="64130,27000
63330,27000
63330,27800
64130,27800
64130,27000
" /> 
<circle cx="63730" cy="28400" r="400" /> 
</g>
<g style="fill:#000000; fill-opacity:1.0; 
stroke:#000000; stroke-width:39.3701; stroke-opacity:1; 
stroke-linecap:round; stroke-linejoin:round;">
</g>
<g style="fill:#000000; fill-opacity:1.0; 
stroke:#000000; stroke-width:0; stroke-opacity:1; 
stroke-linecap:round; stroke-linejoin:round;">
<circle cx="63730" cy="29400" r="400" /> 
</g>
<g style="fill:#000000; fill-opacity:1.0; 
stroke:#000000; stroke-width:39.3701; stroke-opacity:1; 
stroke-linecap:round; stroke-linejoin:round;">
</g>
<g style="fill:#000000; fill-opacity:1.0; 
stroke:#000000; stroke-width:0; stroke-opacity:1; 
stroke-linecap:round; stroke-linejoin:round;">
<polyline style="fill-rule:evenodd;"
points="67166,35957
67560,35957
67560,35642
67166,35642
67166,35957
" /> 
<polyline style="fill-rule:evenodd;"
points="66300,35582
66694,35582
66694,35267
66300,35267
66300,35582
" /> 
<polyline style="fill-rule:evenodd;"
points="66300,36332
66694,36332
66694,36017
66300,36017
66300,36332
" /> 
<polyline style="fill-rule:evenodd;"
points="64572,37636
64572,38030
64887,38030
64887,37636
64572,37636
" /> 
<polyline style="fill-rule:evenodd;"
points="64947,36770
64947,37164
65262,37164
65262,36770
64947,36770
" /> 
<polyline style="fill-rule:evenodd;"
points="64197,36770
64197,37164
64512,37164
64512,36770
64197,36770
" /> 
<polyline style="fill-rule:evenodd;"
points="70018,33944
70018,34455
70293,34455
70293,33944
70018,33944
" /> 
<polyline style="fill-rule:evenodd;"
points="70766,33944
70766,34455
71041,34455
71041,33944
70766,33944
" /> 
<polyline style="fill-rule:evenodd;"
points="68841,35455
68841,34944
68566,34944
68566,35455
68841,35455
" /> 
<polyline style="fill-rule:evenodd;"
points="68093,35455
68093,34944
67818,34944
67818,35455
68093,35455
" /> 
<polyline style="fill-rule:evenodd;"
points="64218,35744
64218,36255
64493,36255
64493,35744
64218,35744
" /> 
<polyline style="fill-rule:evenodd;"
points="64966,35744
64966,36255
65241,36255
65241,35744
64966,35744
" /> 
<polyline style="fill-rule:evenodd;"
points="68841,34455
68841,33944
68566,33944
68566,34455
68841,34455
" /> 
<polyline style="fill-rule:evenodd;"
points="68093,34455
68093,33944
67818,33944
67818,34455
68093,34455
" /> 
<polyline style="fill-rule:evenodd;"
points="66218,33944
66218,34455
66493,34455
66493,33944
66218,33944
" /> 
<polyline style="fill-rule:evenodd;"
points="66966,33944
66966,34455
67241,34455
67241,33944
66966,33944
" /> 
<polyline style="fill-rule:evenodd;"
points="72670,27440
72670,27047
71489,27047
71489,27440
72670,27440
" /> 
<polyline style="fill-rule:evenodd;"
points="72670,28228
72670,27834
71489,27834
71489,28228
72670,28228
" /> 
<polyline style="fill-rule:evenodd;"
points="72670,29015
72670,28622
71489,28622
71489,29015
72670,29015
" /> 
<polyline style="fill-rule:evenodd;"
points="72670,29803
72670,29409
71489,29409
71489,29803
72670,29803
" /> 
<polyline style="fill-rule:evenodd;"
points="72670,30590
72670,30196
71489,30196
71489,30590
72670,30590
" /> 
<polyline style="fill-rule:evenodd;"
points="72670,31377
72670,30984
71489,30984
71489,31377
72670,31377
" /> 
<polyline style="fill-rule:evenodd;"
points="72670,32165
72670,31771
71489,31771
71489,32165
72670,32165
" /> 
<polyline style="fill-rule:evenodd;"
points="72670,32952
72670,32559
71489,32559
71489,32952
72670,32952
" /> 
<polyline style="fill-rule:evenodd;"
points="66370,32952
66370,32559
65189,32559
65189,32952
66370,32952
" /> 
<polyline style="fill-rule:evenodd;"
points="66370,32165
66370,31771
65189,31771
65189,32165
66370,32165
" /> 
<polyline style="fill-rule:evenodd;"
points="66370,31377
66370,30984
65189,30984
65189,31377
66370,31377
" /> 
<polyline style="fill-rule:evenodd;"
points="66370,30590
66370,30196
65189,30196
65189,30590
66370,30590
" /> 
<polyline style="fill-rule:evenodd;"
points="66370,29803
66370,29409
65189,29409
65189,29803
66370,29803
" /> 
<polyline style="fill-rule:evenodd;"
points="66370,29015
66370,28622
65189,28622
65189,29015
66370,29015
" /> 
<polyline style="fill-rule:evenodd;"
points="66370,28228
66370,27834
65189,27834
65189,28228
66370,28228
" /> 
<polyline style="fill-rule:evenodd;"
points="66370,27440
66370,27047
65189,27047
65189,27440
66370,27440
" /> 
<polyline style="fill-rule:evenodd;"
points="73292,38135
73292,37426
72780,37426
72780,38135
73292,38135
" /> 
<polyline style="fill-rule:evenodd;"
points="72386,38135
72386,37426
71874,37426
71874,38135
72386,38135
" /> 
<polyline style="fill-rule:evenodd;"
points="71480,38135
71480,37426
70968,37426
70968,38135
71480,38135
" /> 
<polyline style="fill-rule:evenodd;"
points="72878,35773
72878,35064
71382,35064
71382,35773
72878,35773
" /> 
<polyline style="fill-rule:evenodd;"
points="67544,39397
67544,39003
67150,39003
67150,39397
67544,39397
" /> 
<polyline style="fill-rule:evenodd;"
points="64710,39397
64710,39003
64316,39003
64316,39397
64710,39397
" /> 
<polyline style="fill-rule:evenodd;"
points="69487,38904
69487,39495
70255,39495
70255,38904
69487,38904
" /> 
<polyline style="fill-rule:evenodd;"
points="68405,38904
68405,39495
69173,39495
69173,38904
68405,38904
" /> 
<polyline style="fill-rule:evenodd;"
points="73330,40000
73330,39200
72530,39200
72530,40000
73330,40000
" /> 
<circle cx="71930" cy="39600" r="400" /> 
</g>
<g style="fill:#000000; fill-opacity:1.0; 
stroke:#000000; stroke-width:39.3701; stroke-opacity:1; 
stroke-linecap:round; stroke-linejoin:round;">
</g>
<g style="fill:#000000; fill-opacity:1.0; 
stroke:#000000; stroke-width:0; stroke-opacity:1; 
stroke-linecap:round; stroke-linejoin:round;">
<polyline style="fill-rule:evenodd;"
points="72385,23288
71874,23288
71874,23563
72385,23563
72385,23288
" /> 
<polyline style="fill-rule:evenodd;"
points="72385,24036
71874,24036
71874,24311
72385,24311
72385,24036
" /> 
<polyline style="fill-rule:evenodd;"
points="63942,34107
63942,35092
64336,35092
64336,34107
63942,34107
" /> 
<polyline style="fill-rule:evenodd;"
points="65123,34107
65123,35092
65517,35092
65517,34107
65123,34107
" /> 
<circle cx="70180" cy="23500" r="400" /> 
</g>
<g style="fill:#000000; fill-opacity:1.0; 
stroke:#000000; stroke-width:39.3701; stroke-opacity:1; 
stroke-linecap:round; stroke-linejoin:round;">
</g>
<g style="fill:#000000; fill-opacity:1.0; 
stroke:#000000; stroke-width:0; stroke-opacity:1; 
stroke-linecap:round; stroke-linejoin:round;">
<circle cx="69180" cy="23500" r="400" /> 
</g>
<g style="fill:#000000; fill-opacity:1.0; 
stroke:#000000; stroke-width:39.3701; stroke-opacity:1; 
stroke-linecap:round; stroke-linejoin:round;">
</g>
<g style="fill:#000000; fill-opacity:1.0; 
stroke:#000000; stroke-width:0; stroke-opacity:1; 
stroke-linecap:round; stroke-linejoin:round;">
<circle cx="68180" cy="23500" r="400" /> 
</g>
<g style="fill:#000000; fill-opacity:1.0; 
stroke:#000000; stroke-width:39.3701; stroke-opacity:1; 
stroke-linecap:round; stroke-linejoin:round;">
</g>
<g style="fill:#000000; fill-opacity:1.0; 
stroke:#000000; stroke-width:0; stroke-opacity:1; 
stroke-linecap:round; stroke-linejoin:round;">
<circle cx="67180" cy="23500" r="400" /> 
</g>
<g style="fill:#000000; fill-opacity:1.0; 
stroke:#000000; stroke-width:39.3701; stroke-opacity:1; 
stroke-linecap:round; stroke-linejoin:round;">
</g>
<g style="fill:#000000; fill-opacity:1.0; 
stroke:#000000; stroke-width:0; stroke-opacity:1; 
stroke-linecap:round; stroke-linejoin:round;">
<polyline style="fill-rule:evenodd;"
points="72674,26387
73185,26387
73185,26112
72674,26112
72674,26387
" /> 
<polyline style="fill-rule:evenodd;"
points="72674,25639
73185,25639
73185,25364
72674,25364
72674,25639
" /> 
</g>
<g style="fill:#000000; fill-opacity:1.0; 
stroke:#000000; stroke-width:200; stroke-opacity:1; 
stroke-linecap:round; stroke-linejoin:round;">
</g>
<g style="fill:#000000; fill-opacity:0.0; 
stroke:#000000; stroke-width:200; stroke-opacity:1; 
stroke-linecap:round; stroke-linejoin:round;">
<path d="M63430 38300
L63430 38400
" />
<path d="M63430 38400
L63430 38600
" />
<path d="M65780 38400
L63430 38400
" />
<path d="M65105 36967
L65497 36967
" />
<path d="M65497 36967
L65780 37250
" />
<path d="M65780 37250
L65780 38400
" />
<path d="M66355 34750
L65867 34750
" />
<path d="M65867 34750
L65717 34600
" />
<path d="M65717 34600
L65320 34600
" />
<path d="M66355 34750
L66355 34600
" />
<path d="M66355 34925
L66355 34750
" />
<path d="M65320 34600
L65420 34700
" />
<path d="M63730 29400
L62930 29400
" />
<path d="M62930 29400
L62930 37800
" />
<path d="M62930 37800
L63430 38300
" />
<path d="M65320 34600
L64730 34600
" />
<path d="M64730 34600
L64730 36552
" />
<path d="M64730 36552
L65105 36927
" />
<path d="M65105 36927
L65105 36967
" />
<path d="M63430 39400
L63430 38600
" />
<path d="M65780 33349
L65320 33809
" />
<path d="M65320 33809
L65320 34600
" />
<path d="M65780 32755
L65780 33349
" />
<path d="M66355 34600
L66355 34200
" />
<path d="M68789 39200
L68789 38704
" />
<path d="M71930 39034
L70814 39034
" />
<path d="M70814 39034
L70330 38550
" />
<path d="M68789 38691
L68789 39200
" />
<path d="M70330 38550
L68930 38550
" />
<path d="M68930 38550
L68789 38691
" />
<path d="M73036 37781
L73036 38650
" />
<path d="M73036 38650
L72314 38650
" />
<path d="M72314 38650
L71930 39034
" />
<path d="M71930 39034
L71930 39600
" />
<path d="M68789 39200
L68789 40141
" />
<path d="M68789 40141
L68780 40150
" />
<path d="M67180 23500
L65030 23500
" />
<path d="M65030 23500
L62930 25600
" />
<path d="M62930 25600
L62930 29400
" />
<path d="M68130 36950
L67880 37200
" />
<path d="M67880 37200
L67323 37200
" />
<path d="M68130 36600
L68130 36950
" />
<path d="M68439 36291
L68130 36600
" />
<path d="M69130 36291
L68439 36291
" />
<path d="M68780 40150
L64180 40150
" />
<path d="M64180 40150
L63430 39400
" />
<path d="M66497 35067
L66355 34925
" />
<path d="M66497 35425
L66497 35067
" />
<path d="M67347 39200
L67347 37223
" />
<path d="M67347 37223
L67323 37200
" />
<path d="M68789 39200
L67347 39200
" />
<path d="M64355 36967
L64355 36000
" />
<path d="M64355 36000
L64355 36000
" />
<path d="M64355 36000
L64355 35544
" />
<path d="M64355 35544
L64139 35327
" />
<path d="M64139 35327
L64139 34600
" />
<path d="M64885 27244
L64730 27400
" />
<path d="M64730 27400
L63730 27400
" />
<path d="M65780 27244
L64885 27244
" />
<path d="M65780 28031
L64989 28031
" />
<path d="M64989 28031
L64621 28400
" />
<path d="M64621 28400
L63730 28400
" />
<path d="M66030 35800
L65830 36000
" />
<path d="M65830 36000
L65104 36000
" />
<path d="M67955 35200
L67605 35200
" />
<path d="M67605 35200
L67363 35442
" />
<path d="M67363 35442
L67363 35800
" />
<path d="M67363 35800
L66030 35800
" />
<path d="M64730 37833
L63963 37833
" />
<path d="M63963 37833
L63580 37450
" />
<path d="M63580 37450
L63580 33050
" />
<path d="M63580 33050
L64380 32250
" />
<path d="M64380 32250
L64380 30700
" />
<path d="M64380 30700
L64686 30393
" />
<path d="M64686 30393
L65780 30393
" />
<path d="M67955 34200
L67955 31225
" />
<path d="M67955 31225
L67123 30393
" />
<path d="M67123 30393
L65780 30393
" />
<path d="M70155 34200
L70155 29174
" />
<path d="M70155 29174
L70511 28818
" />
<path d="M70511 28818
L72079 28818
" />
<path d="M70580 35200
L69980 35200
" />
<path d="M70039 37709
L70039 35259
" />
<path d="M69980 35200
L68704 35200
" />
<path d="M70039 35259
L69980 35200
" />
<path d="M70904 34875
L70580 35200
" />
<path d="M70904 34200
L70904 34875
" />
<path d="M70904 34200
L70904 34318
" />
<path d="M72130 37781
L72130 38335
" />
<path d="M72130 38335
L71915 38550
" />
<path d="M71915 38550
L70880 38550
" />
<path d="M70880 38550
L70039 37709
" />
<path d="M70039 37709
L69645 37709
" />
<path d="M69645 37709
L69921 37709
" />
<path d="M69130 37709
L69645 37709
" />
<path d="M70904 34200
L70904 33025
" />
<path d="M70904 33025
L71174 32755
" />
<path d="M71174 32755
L72079 32755
" />
<path d="M68704 34200
L68704 35200
" />
<path d="M67104 34200
L67104 32274
" />
<path d="M67104 32274
L66798 31968
" />
<path d="M66798 31968
L65780 31968
" />
<path d="M73580 36600
L73730 36750
" />
<path d="M73730 36750
L73730 39400
" />
<path d="M73730 39400
L73530 39600
" />
<path d="M73530 39600
L72930 39600
" />
<path d="M72130 23425
L72555 23425
" />
<path d="M72555 23425
L73880 24750
" />
<path d="M73880 24750
L73880 36300
" />
<path d="M73880 36300
L73580 36600
" />
<path d="M73580 36600
L71430 36600
" />
<path d="M71430 36600
L71224 36806
" />
<path d="M71224 36806
L71224 37781
" />
<path d="M70030 40300
L69871 40141
" />
<path d="M69871 40141
L69871 39200
" />
<path d="M72880 40300
L70030 40300
" />
<path d="M72930 40250
L72880 40300
" />
<path d="M72930 39600
L72930 40250
" />
<path d="M71155 23425
L71081 23500
" />
<path d="M71081 23500
L70180 23500
" />
<path d="M72130 23425
L71155 23425
" />
<path d="M72331 25501
L72079 25754
" />
<path d="M72079 25754
L72079 27244
" />
<path d="M72930 25501
L72331 25501
" />
<path d="M64513 39200
L65930 39200
" />
<path d="M65930 39200
L66536 38593
" />
<path d="M66536 38593
L66536 37200
" />
<path d="M66497 36175
L66894 36175
" />
<path d="M67119 36400
L67680 36400
" />
<path d="M66894 36175
L67119 36400
" />
<path d="M67680 36400
L68330 35750
" />
<path d="M68330 35750
L68330 28550
" />
<path d="M68330 28550
L69635 27244
" />
<path d="M69635 27244
L72079 27244
" />
<path d="M66497 36175
L66497 37160
" />
<path d="M66497 37160
L66536 37200
" />
<path d="M72130 24174
L72105 24150
" />
<path d="M72105 24150
L69181 24150
" />
<path d="M69181 24150
L69180 24148
" />
<path d="M69180 24148
L69180 23500
" />
<path d="M72079 30393
L72936 30393
" />
<path d="M72936 30393
L73580 29750
" />
<path d="M73580 29750
L73580 24850
" />
<path d="M72904 24174
L72130 24174
" />
<path d="M73580 24850
L72904 24174
" />
<path d="M72930 26250
L72930 26700
" />
<path d="M72930 26700
L73280 27050
" />
<path d="M73280 27050
L73280 29450
" />
<path d="M73123 29606
L72079 29606
" />
<path d="M73280 29450
L73123 29606
" />
</g>
<g style="fill:#FFFFFF; fill-opacity:0.0; 
stroke:#FFFFFF; stroke-width:200; stroke-opacity:1; 
stroke-linecap:round; stroke-linejoin:round;">
</g>
<g style="fill:#FFFFFF; fill-opacity:1.0; 
stroke:#FFFFFF; stroke-width:0; stroke-opacity:1; 
stroke-linecap:round; stroke-linejoin:round;">
<circle cx="63730" cy="27400" r="75" /> 
</g>
<g style="fill:#FFFFFF; fill-opacity:1.0; 
stroke:#FFFFFF; stroke-width:39.3701; stroke-opacity:1; 
stroke-linecap:round; stroke-linejoin:round;">
</g>
<g style="fill:#FFFFFF; fill-opacity:1.0; 
stroke:#FFFFFF; stroke-width:0; stroke-opacity:1; 
stroke-linecap:round; stroke-linejoin:round;">
<circle cx="63730" cy="28400" r="75" /> 
</g>
<g style="fill:#FFFFFF; fill-opacity:1.0; 
stroke:#FFFFFF; stroke-width:39.3701; stroke-opacity:1; 
stroke-linecap:round; stroke-linejoin:round;">
</g>
<g style="fill:#FFFFFF; fill-opacity:1.0; 
stroke:#FFFFFF; stroke-width:0; stroke-opacity:1; 
stroke-linecap:round; stroke-linejoin:round;">
<circle cx="63730" cy="29400" r="75" /> 
</g>
<g style="fill:#FFFFFF; fill-opacity:1.0; 
stroke:#FFFFFF; stroke-width:39.3701; stroke-opacity:1; 
stroke-linecap:round; stroke-linejoin:round;">
</g>
<g style="fill:#FFFFFF; fill-opacity:1.0; 
stroke:#FFFFFF; stroke-width:0; stroke-opacity:1; 
stroke-linecap:round; stroke-linejoin:round;">
<circle cx="72930" cy="39600" r="75" /> 
</g>
<g style="fill:#FFFFFF; fill-opacity:1.0; 
stroke:#FFFFFF; stroke-width:39.3701; stroke-opacity:1; 
stroke-linecap:round; stroke-linejoin:round;">
</g>
<g style="fill:#FFFFFF; fill-opacity:1.0; 
stroke:#FFFFFF; stroke-width:0; stroke-opacity:1; 
stroke-linecap:round; stroke-linejoin:round;">
<circle cx="71930" cy="39600" r="75" /> 
</g>
<g style="fill:#FFFFFF; fill-opacity:1.0; 
stroke:#FFFFFF; stroke-width:39.3701; stroke-opacity:1; 
stroke-linecap:round; stroke-linejoin:round;">
</g>
<g style="fill:#FFFFFF; fill-opacity:1.0; 
stroke:#FFFFFF; stroke-width:0; stroke-opacity:1; 
stroke-linecap:round; stroke-linejoin:round;">
<circle cx="70180" cy="23500" r="75" /> 
</g>
<g style="fill:#FFFFFF; fill-opacity:1.0; 
stroke:#FFFFFF; stroke-width:39.3701; stroke-opacity:1; 
stroke-linecap:round; stroke-linejoin:round;">
</g>
<g style="fill:#FFFFFF; fill-opacity:1.0; 
stroke:#FFFFFF; stroke-width:0; stroke-opacity:1; 
stroke-linecap:round; stroke-linejoin:round;">
<circle cx="69180" cy="23500" r="75" /> 
</g>
<g style="fill:#FFFFFF; fill-opacity:1.0; 
stroke:#FFFFFF; stroke-width:39.3701; stroke-opacity:1; 
stroke-linecap:round; stroke-linejoin:round;">
</g>
<g style="fill:#FFFFFF; fill-opacity:1.0; 
stroke:#FFFFFF; stroke-width:0; stroke-opacity:1; 
stroke-linecap:round; stroke-linejoin:round;">
<circle cx="68180" cy="23500" r="75" /> 
</g>
<g style="fill:#FFFFFF; fill-opacity:1.0; 
stroke:#FFFFFF; stroke-width:39.3701; stroke-opacity:1; 
stroke-linecap:round; stroke-linejoin:round;">
</g>
<g style="fill:#FFFFFF; fill-opacity:1.0; 
stroke:#FFFFFF; stroke-width:0; stroke-opacity:1; 
stroke-linecap:round; stroke-linejoin:round;">
<circle cx="67180" cy="23500" r="75" /> 
</g>
<g style="fill:#FFFFFF; fill-opacity:1.0; 
stroke:#FFFFFF; stroke-width:39.3701; stroke-opacity:1; 
stroke-linecap:round; stroke-linejoin:round;">
</g>
<g style="fill:#000000; fill-opacity:1.0; 
stroke:#000000; stroke-width:39.3701; stroke-opacity:1; 
stroke-linecap:round; stroke-linejoin:round;">
</g> 
</svg>
